<svg xmlns="http://www.w3.org/2000/svg" version="1.1" viewBox="-5.0 -10.0 110.0 135.0">
 <path d="m10 10v80h79.996l0.003906-80zm72.727 72.727h-65.453v-65.453h65.453zm-39.512-32.727c0-3.7422 3.0469-6.7852 6.7852-6.7852 3.7422 0 6.7852 3.0469 6.7852 6.7852 0 3.7422-3.0469 6.7852-6.7852 6.7852-3.7422 0-6.7852-3.043-6.7852-6.7852zm16.969-16.969c0-3.7422 3.0469-6.7852 6.7852-6.7852s6.7891 3.0469 6.7891 6.7852c0 3.7422-3.0508 6.7852-6.7891 6.7852-3.7422 0-6.7852-3.043-6.7852-6.7852zm0 33.941c0-3.7422 3.0469-6.7852 6.7852-6.7852s6.7891 3.0469 6.7891 6.7852c0 3.7422-3.0508 6.7852-6.7891 6.7852-3.7422 0-6.7852-3.043-6.7852-6.7852zm-33.941-33.941c0-3.7422 3.0469-6.7852 6.7852-6.7852 3.7422 0 6.7852 3.0469 6.7852 6.7852 0 3.7422-3.0469 6.7852-6.7852 6.7852-3.7422 0-6.7852-3.043-6.7852-6.7852zm0 33.941c0-3.7422 3.0469-6.7852 6.7852-6.7852 3.7422 0 6.7852 3.0469 6.7852 6.7852 0 3.7422-3.0469 6.7852-6.7852 6.7852-3.7422 0-6.7852-3.043-6.7852-6.7852z"/>
<text x="0.0" y="117.5" font-size="5.0" font-weight="bold" font-family="Arbeit Regular, Helvetica, Arial-Unicode, Arial, Sans-serif" fill="#000000">Created by Secondtoughest</text><text x="0.0" y="122.5" font-size="5.0" font-weight="bold" font-family="Arbeit Regular, Helvetica, Arial-Unicode, Arial, Sans-serif" fill="#000000">from Noun Project</text></svg>